#!OML:ASF H:\Terrain\Patient Classification 1\Walking\liu\liu.ASF
:FULLY-SPECIFIED
:DEGREES
206
root 9.21076 16.2532 14.9709 9.12606 0.994132 4.6129
lowerback -6.36755 -2.90728 -7.52169
upperback -0.620402 -3.40148 1.77754
thorax 3.47717 -1.8186 5.75774
lowerneck -20.4008 -2.6364 -12.707
upperneck 21.2857 -2.84154 12.6525
head 10.5636 -0.839775 6.33741
rclavicle 5.11871e-015 -9.54166e-015
rhumerus -54.025 -0.460906 -69.1787
rradius 22.8911
rwrist -5.95476
rhand -30.4017 -26.8756
rfingers 7.12502
rthumb -3.70538 -56.8232
lclavicle 5.11871e-015 -9.54166e-015
lhumerus -4.3803 -27.9619 86.619
lradius 41.8762
lwrist 13.7156
lhand -21.9981 -27.5789
lfingers 7.12502
lthumb 4.41056 2.35517
rfemur -48.839 3.9955 15.6948
rtibia 34.6183
rfoot -8.8209 -1.26171
rtoes -27.4728
lfemur 23.2581 4.48749 -26.5386
ltibia 5.40694e-014
lfoot -9.83801 -1.71349
ltoes -17.4862
207
root 9.20051 16.2442 15.2521 9.00423 0.97828 4.20176
lowerback -6.41828 -2.92885 -7.09295
upperback -0.525244 -3.46169 1.96327
thorax 3.60089 -1.85141 5.69961
lowerneck -20.5708 -2.55163 -12.7293
upperneck 21.2531 -2.6355 12.4411
head 10.55 -0.766548 6.29101
rclavicle -5.01931e-014 8.74653e-015
rhumerus -53.4681 -2.03498 -67.3178
rradius 21.6764
rwrist -3.84237
rhand -31.0148 -26.3505
rfingers 7.12502
rthumb -4.29746 -56.2868
lclavicle -5.01931e-014 8.74653e-015
lhumerus -4.66409 -26.9004 87.1696
lradius 41.7574
lwrist 13.5865
lhand -21.7638 -27.9132
lfingers 7.12502
lthumb 4.63687 2.01604
rfemur -48.7839 3.83328 16.3384
rtibia 36.3016
rfoot -7.1795 -0.899875
rtoes -27.1846
lfemur 24.262 4.78815 -25.808
ltibia 3.81667e-014
lfoot -7.39092 -1.71996
ltoes -18.4302
208
root 9.18398 16.2227 15.5307 8.76926 0.931142 3.99837
lowerback -6.09622 -2.99248 -6.9795
upperback -0.651071 -3.58495 2.09931
thorax 3.30927 -1.89865 5.78276
lowerneck -20.4486 -2.38275 -12.7634
upperneck 21.3314 -2.40124 12.4223
head 10.5193 -0.668045 6.32553
rclavicle -3.47376e-014 -7.15625e-015
rhumerus -53.2498 -3.44371 -65.4723
rradius 20.4114
rwrist -1.81881
rhand -31.4682 -25.2455
rfingers 7.12502
rthumb -4.73524 -55.1726
lclavicle -3.47376e-014 -7.15625e-015
lhumerus -5.61414 -26.2974 87.7554
lradius 41.9952
lwrist 14.1064
lhand -21.4909 -27.8977
lfingers 7.12502
lthumb 4.90041 2.02565
rfemur -48.5045 3.60974 16.9125
rtibia 38.2128
rfoot -6.19837 -0.691959
rtoes -27.5051
lfemur 25.4629 5.1006 -25.3332
ltibia -4.45278e-014
lfoot -4.43371 -1.07026
ltoes -19.0272
209
root 9.16764 16.2009 15.8074 8.53237 0.887411 3.63638
lowerback -5.85109 -3.02659 -6.67345
upperback -0.730348 -3.67332 2.23565
thorax 3.09231 -1.93015 5.75701
lowerneck -20.5949 -2.24572 -12.5971
upperneck 21.6416 -2.23519 12.3009
head 10.6308 -0.591938 6.29198
rclavicle 1.87355e-014 1.43125e-014
rhumerus -53.0456 -5.14469 -63.4715
rradius 19.2881
rwrist 0.559395
rhand -30.7131 -25.5997
rfingers 7.12502
rthumb -4.00614 -55.5417
lclavicle 1.87355e-014 1.43125e-014
lhumerus -6.69245 -25.4109 88.3623
lradius 42.2547
lwrist 13.9419
lhand -21.6238 -27.9325
lfingers 7.12502
lthumb 4.77201 1.99381
rfemur -48.3096 3.34069 17.7634
rtibia 40.2148
rfoot -5.60134 -0.292262
rtoes -27.4273
lfemur 26.7399 5.42535 -24.7125
ltibia 3.18055e-014
lfoot -1.01169 -0.0321631
ltoes -19.791
210
root 9.16235 16.1914 16.074 8.54496 0.853629 3.5407
lowerback -5.93915 -3.09028 -6.51443
upperback -0.726402 -3.76438 2.28329
thorax 3.15258 -1.97605 5.70322
lowerneck -20.9653 -2.1709 -12.4523
upperneck 21.9106 -2.13024 12.219
head 10.7814 -0.535123 6.2707
rclavicle 2.01766e-014 -1.19271e-014
rhumerus -52.5568 -7.25512 -61.2137
rradius 18.0243
rwrist 3.54167
rhand -29.4671 -26.344
rfingers 7.12502
rthumb -2.80285 -56.3053
lclavicle 2.01766e-014 -1.19271e-014
lhumerus -7.59246 -24.1387 88.9671
lradius 42.2564
lwrist 13.1937
lhand -22.1107 -28.5805
lfingers 7.12502
lthumb 4.30188 1.3558
rfemur -48.4548 3.00251 18.2318
rtibia 42.0659
rfoot -5.37562 0.380734
rtoes -24.9754
lfemur 27.5908 5.69055 -24.4168
ltibia 1.59028e-014
lfoot 3.26014 1.41863
ltoes -17.6712
211
root 9.15098 16.1941 16.3369 8.4809 0.689466 3.48585
lowerback -5.83653 -3.16651 -6.55349
upperback -0.777807 -3.87438 2.38604
thorax 3.06777 -2.02823 5.82859
lowerneck -21.1451 -2.06471 -12.4631
upperneck 21.9928 -1.97445 12.273
head 10.823 -0.454854 6.3238
rclavicle -1.56543e-014 -3.18055e-015
rhumerus -52.1109 -10.3069 -57.823
rradius 16.3318
rwrist 8.24347
rhand -28.9886 -24.8478
rfingers 7.12502
rthumb -2.34069 -54.8147
lclavicle -1.56543e-014 -3.18055e-015
lhumerus -8.66369 -23.4384 89.4808
lradius 42.4288
lwrist 13.5209
lhand -22.0485 -28.7483
lfingers 7.12502
lthumb 4.36198 1.18673
rfemur -48.3773 3.01448 18.5488
rtibia 43.6
rfoot -5.45839 1.15514
rtoes -21.5646
lfemur 24.8402 6.20741 -24.1149
ltibia 6.79044
lfoot 4.23339 2.53426
ltoes -15.6422
212
root 9.12642 16.1928 16.6003 8.24632 0.529697 2.91454
lowerback -5.51254 -3.15908 -6.22317
upperback -0.860945 -3.91401 2.65202
thorax 2.80242 -2.03557 5.93619
lowerneck -21.2171 -1.9579 -12.3899
upperneck 22.1646 -1.80951 12.1162
head 10.8728 -0.392414 6.28493
rclavicle 3.35449e-014 5.56597e-015
rhumerus -52.1516 -13.0574 -54.6355
rradius 15.269
rwrist 12.4833
rhand -28.578 -23.5825
rfingers 7.12502
rthumb -1.94418 -53.5534
lclavicle 3.35449e-014 5.56597e-015
lhumerus -9.88021 -23.1213 90.0606
lradius 42.6101
lwrist 14.1951
lhand -21.6233 -28.3467
lfingers 7.12502
lthumb 4.77255 1.57958
rfemur -47.7377 3.24511 19.4929
rtibia 44.779
rfoot -6.22477 1.86468
rtoes -20.6598
lfemur 21.3329 6.82573 -23.1329
ltibia 15.3973
lfoot 3.82321 3.27071
ltoes -15.8887
213
root 9.10113 16.195 16.8585 8.1836 0.429035 2.20226
lowerback -5.40782 -3.07822 -5.71889
upperback -0.93925 -3.84941 2.90859
thorax 2.63732 -1.99265 5.93398
lowerneck -21.2699 -1.93928 -12.1347
upperneck 22.3588 -1.78547 11.7728
head 10.9457 -0.402131 6.12237
rclavicle 4.00551e-014 -3.97569e-015
rhumerus -52.2523 -14.2574 -53.4383
rradius 15.1197
rwrist 13.7387
rhand -28.4192 -24.7837
rfingers 7.12502
rthumb -1.79082 -54.7559
lclavicle 4.00551e-014 -3.97569e-015
lhumerus -10.9576 -22.5304 90.7284
lradius 42.5149
lwrist 14.0789
lhand -21.1821 -28.0731
lfingers 7.12502
lthumb 5.19855 1.84317
rfemur -47.0263 3.41974 20.6318
rtibia 45.6532
rfoot -7.32699 2.14112
rtoes -21.3432
lfemur 18.8431 7.77883 -21.8291
ltibia 21.5586
lfoot 5.08265 4.17307
ltoes -12.8286
214
root 9.07513 16.221 17.1165 8.1909 0.355747 1.80374
lowerback -5.45951 -3.01528 -5.52573
upperback -0.970887 -3.7779 3.03987
thorax 2.61941 -1.95459 5.96782
lowerneck -20.9865 -1.924 -11.9095
upperneck 22.1862 -1.80329 11.5511
head 10.8264 -0.421778 5.98112
rclavicle -2.90226e-014 6.36111e-015
rhumerus -52.2964 -15.8314 -52.196
rradius 14.8285
rwrist 15.2025
rhand -29.1567 -25.0589
rfingers 7.12502
rthumb -2.50307 -55.024
lclavicle -2.90226e-014 6.36111e-015
lhumerus -11.9639 -22.5216 91.269
lradius 42.3057
lwrist 13.9094
lhand -21.4641 -28.0122
lfingers 7.12502
lthumb 4.92627 1.91052
rfemur -46.2177 3.4787 21.4227
rtibia 46.1316
rfoot -7.94645 2.09078
rtoes -20.8897
lfemur 16.5124 8.49358 -21.0052
ltibia 26.9984
lfoot 6.92778 5.717
ltoes -8.63364
215
root 9.04907 16.2613 17.3702 8.17664 0.333901 1.68068
lowerback -5.44358 -2.99616 -5.72406
upperback -0.952231 -3.74503 3.15212
thorax 2.64549 -1.94259 6.20293
lowerneck -20.6618 -1.8616 -11.9314
upperneck 21.9046 -1.75169 11.6463
head 10.6546 -0.3925 6.00898
rclavicle -1.68967e-015 -1.90833e-014
rhumerus -52.3921 -18.4986 -49.8791
rradius 14.2182
rwrist 18.0981
rhand -30.216 -24.275
rfingers 7.12502
rthumb -3.52606 -54.2256
lclavicle -1.68967e-015 -1.90833e-014
lhumerus -12.7878 -23.4424 91.6814
lradius 41.8448
lwrist 14.1362
lhand -22.5481 -28.3721
lfingers 7.12502
lthumb 3.8795 1.57234
rfemur -45.2383 3.39171 21.8625
rtibia 46.3068
rfoot -8.39392 2.23591
rtoes -19.1798
lfemur 14.2946 8.98507 -20.6219
ltibia 31.98
lfoot 8.69927 6.78612
ltoes -11.0891
216
root 9.05824 16.3172 17.6125 7.51984 0.794297 0.332075
lowerback -4.57847 -2.96702 -4.29065
upperback -0.72831 -3.82809 3.55313
thorax 2.34045 -1.97061 5.83721
lowerneck -20.8786 -1.80076 -11.7669
upperneck 21.9008 -1.67535 11.5717
head 10.6818 -0.346958 5.96665
rclavicle -2.63887e-014 -1.35174e-014
rhumerus -52.1472 -20.1341 -48.8429
rradius 14.0072
rwrist 19.1329
rhand -31.5665 -24.0985
rfingers 7.12502
rthumb -4.83011 -54.0234
lclavicle -2.63887e-014 -1.35174e-014
lhumerus -13.3372 -24.1396 92.0602
lradius 41.193
lwrist 14.3088
lhand -23.1014 -28.9101
lfingers 7.12502
lthumb 3.34521 1.04338
rfemur -43.105 2.63738 23.6541
rtibia 46.109
rfoot -9.33728 2.91677
rtoes -18.4603
lfemur 12.893 9.27352 -18.8133
ltibia 36.6601
lfoot 9.56625 7.57358
ltoes -17.1332
217
root 9.04524 16.3674 17.864 7.32429 1.09643 -0.8379
lowerback -4.33403 -2.95901 -3.22885
upperback -0.655947 -3.88264 3.89418
thorax 2.2393 -1.98966 5.59764
lowerneck -21.154 -1.718 -11.2803
upperneck 22.0458 -1.60936 11.2247
head 10.7716 -0.311896 5.77141
rclavicle -1.19271e-015 -1.19271e-014
rhumerus -51.5226 -19.7641 -49.9131
rradius 14.2244
rwrist 17.6486
rhand -32.5444 -23.4502
rfingers 7.12502
rthumb -5.77431 -53.3515
lclavicle -1.19271e-015 -1.19271e-014
lhumerus -14.0843 -24.4569 92.435
lradius 40.6272
lwrist 14.1491
lhand -23.3227 -28.9007
lfingers 7.12502
lthumb 3.1315 1.05602
rfemur -41.4488 2.43019 25.0846
rtibia 45.6779
rfoot -10.4912 3.21817
rtoes -19.5514
lfemur 10.8653 9.72047 -17.2001
ltibia 41.2014
lfoot 9.71083 9.33087
ltoes -17.6369
218
root 9.02689 16.4177 18.1075 7.46478 1.35696 -1.87035
lowerback -4.19336 -2.91173 -2.32778
upperback -0.896535 -3.86322 4.21711
thorax 1.87255 -1.96242 5.43992
lowerneck -21.0552 -1.69591 -11.1312
upperneck 22.234 -1.62137 11.1114
head 10.8212 -0.322566 5.7079
rclavicle 2.63887e-014 -1.98785e-014
rhumerus -51.2278 -18.9685 -51.0993
rradius 14.6207
rwrist 15.7995
rhand -32.676 -23.6053
rfingers 7.12502
rthumb -5.90144 -53.5031
lclavicle 2.63887e-014 -1.98785e-014
lhumerus -15.2741 -24.5125 93.1063
lradius 40.0658
lwrist 13.3152
lhand -23.6877 -28.0018
lfingers 7.12502
lthumb 2.77893 1.95985
rfemur -40.1571 2.34438 26.3419
rtibia 45.0027
rfoot -11.4515 3.43144
rtoes -20.161
lfemur 8.31725 10.0705 -15.8743
ltibia 45.6014
lfoot 10.455 11.5332
ltoes -7.9355
219
root 9.01655 16.4845 18.3405 7.71085 1.57976 -2.64526
lowerback -4.18757 -2.79719 -1.67386
upperback -1.06875 -3.73942 4.53768
thorax 1.65756 -1.89118 5.41872
lowerneck -21.0725 -1.82172 -11.3594
upperneck 22.3426 -1.74697 11.1866
head 10.8843 -0.391579 5.76339
rclavicle 1.27222e-014 -4.21423e-014
rhumerus -50.8443 -19.0587 -51.6105
rradius 14.7894
rwrist 14.5219
rhand -32.5856 -24.1901
rfingers 7.12502
rthumb -5.81408 -54.0903
lclavicle 1.27222e-014 -4.21423e-014
lhumerus -16.1928 -24.4759 94.0117
lradius 39.2157
lwrist 12.2266
lhand -23.1908 -27.0733
lfingers 7.12502
lthumb 3.25886 2.88157
rfemur -39.041 2.042 27.3534
rtibia 44.2334
rfoot -11.9318 3.70366
rtoes -19.011
lfemur 5.56312 10.3569 -14.9802
ltibia 49.7463
lfoot 7.39592 12.8701
ltoes -10.8914
